<svg version="1.1" viewBox="0.0 0.0 480.0 480.0" fill="none" stroke="none" stroke-linecap="square" stroke-miterlimit="10" xmlns:xlink="http://www.w3.org/1999/xlink" xmlns="http://www.w3.org/2000/svg"><clipPath id="p.0"><path d="m0 0l480.0 0l0 480.0l-480.0 0l0 -480.0z" clip-rule="nonzero"/></clipPath><g clip-path="url(#p.0)"><path fill="#000000" fill-opacity="0.0" d="m0 0l480.0 0l0 480.0l-480.0 0z" fill-rule="evenodd"/><path fill="#0d1116" d="m-5.5643046E-5 9.4225725E-5l480.0 0l0 480.0l-480.0 0z" fill-rule="evenodd"/><path stroke="#000000" stroke-width="1.0" stroke-linejoin="round" stroke-linecap="butt" d="m-5.5643046E-5 9.4225725E-5l480.0 0l0 480.0l-480.0 0z" fill-rule="evenodd"/><g filter="url(#shadowFilter-p.1)"><use xlink:href="#p.1" transform="matrix(1.0 0.0 0.0 1.0 12.618681889763776 18.021344619422564)"/></g><defs><filter id="shadowFilter-p.1" filterUnits="userSpaceOnUse"><feGaussianBlur in="SourceAlpha" stdDeviation="0.0" result="blur"/><feComponentTransfer in="blur" color-interpolation-filters="sRGB"><feFuncR type="linear" slope="0" intercept="1.0"/><feFuncG type="linear" slope="0" intercept="0.0"/><feFuncB type="linear" slope="0" intercept="0.0"/><feFuncA type="linear" slope="1.0" intercept="0"/></feComponentTransfer></filter></defs><g id="p.1"><path fill="#000000" fill-opacity="0.0" d="m41.622047 76.89764l396.75592 0l0 326.2047l-396.75592 0z" fill-rule="evenodd"/><path fill="#ffffff" d="m86.5908 151.76952l80.06249 0q27.859375 0 48.25 9.125q20.390625 9.109375 31.28125 26.09375q10.90625 16.96875 10.90625 40.015625q0 30.656235 -14.1875 53.843735q-14.1875 23.171875 -39.40625 35.71875q-25.203125 12.53125 -57.375 12.53125l-94.99999 0l35.46875 -177.32811zm61.562492 130.71873q23.046875 0 35.84375 -14.5625q12.796875 -14.57811 12.796875 -37.374985q0 -15.453125 -9.5 -23.8125q-9.5 -8.359375 -27.484375 -8.359375l-22.796875 0l-16.718742 84.10936l27.859367 0zm182.65524 50.65628q-23.0625 0 -43.328125 -4.9375305q-20.265625 -4.9375 -33.4375 -13.046875l23.046875 -44.078125q28.640625 16.46875 59.796875 16.46875q11.390625 0 17.46875 -2.78125q6.09375 -2.796875 6.09375 -7.609375q0 -4.546875 -6.21875 -7.328125q-6.203125 -2.796875 -19.625 -6.09375q-17.734375 -4.5625 -29.390625 -9.249985q-11.65625 -4.6875 -20.390625 -14.4375q-8.734375 -9.75 -8.734375 -25.703125q0 -20.015625 10.765625 -35.09375q10.765625 -15.078125 31.03125 -23.3125q20.265625 -8.234375 47.875 -8.234375q19.765625 0 36.859375 3.9375q17.09375 3.921875 29.515625 11.265625l-21.53125 43.578125q-10.390625 -6.59375 -22.9375 -9.875q-12.53125 -3.296875 -25.703125 -3.296875q-12.421875 0 -19.265625 3.546875q-6.828125 3.546875 -6.828125 8.359375q0 4.8125 6.203125 7.609375q6.203125 2.78125 20.390625 6.0625q17.234375 4.0625 29.015625 8.625q11.78125 4.546875 20.390625 14.1875q8.609375 9.625 8.609375 25.32811q0 19.75 -10.890625 34.703125q-10.890625 14.953125 -31.15625 23.1875q-20.265625 8.2187805 -47.625 8.2187805z" fill-rule="nonzero"/></g></g></svg>