<svg width="0" height="0" class="hidden">
    <symbol id="ds-logo" viewBox="0 0 26 24" fill="none"
        xmlns="http://www.w3.org/2000/svg">
        <path fill-rule="evenodd" clip-rule="evenodd"
            d="M12 6.038 0 0v24l12-6.038V6.038ZM8 8 4 6v12l4-2V8Zm18-8L14 6.038V10l8 4v4l-8-4v3.962L26 24V12.688l-9.02-4.433L26 3.822V0Z"
            fill="#fff" />
        <path
            d="M17.776 7.553 16.882 8l.894.447L25.5 12.31v2.882l-11-5.5V6.346l11-5.535v2.88l-7.724 3.862Z"
            fill="#6ADBFF" stroke="#6ADBFF" />
        <path d="m26 16-4-2v2l4 2v-2Z" fill="#0D1115" />
    </symbol>
    <symbol id="linkedin" viewBox="0 0 25 24" fill="none" xmlns="http://www.w3.org/2000/svg">
        <path
            d="M22.728 0H2.272A1.772 1.772 0 0 0 .5 1.772v20.456A1.772 1.772 0 0 0 2.272 24h20.456a1.772 1.772 0 0 0 1.772-1.772V1.772A1.772 1.772 0 0 0 22.728 0ZM7.653 20.445H4.045V8.983h3.608v11.462ZM5.847 7.395a2.072 2.072 0 1 1 2.083-2.07 2.042 2.042 0 0 1-2.083 2.07Zm15.106 13.06h-3.606v-6.262c0-1.846-.785-2.416-1.799-2.416-1.07 0-2.12.806-2.12 2.463v6.215H9.82V8.992h3.47v1.588h.047c.348-.705 1.568-1.91 3.43-1.91 2.013 0 4.188 1.195 4.188 4.695l-.002 7.09Z"
            fill="#fff" />
    </symbol>
    <symbol id="github" viewBox="0 0 25 24" fill="none" xmlns="http://www.w3.org/2000/svg">
        <g clip-path="url(#a)">
            <path fill-rule="evenodd" clip-rule="evenodd"
                d="M12.5 0C5.872 0 .5 5.38.5 12.02a12.02 12.02 0 0 0 8.207 11.405c.6.11.818-.26.818-.58 0-.284-.01-1.041-.015-2.043-3.339.726-4.043-1.612-4.043-1.612-.545-1.39-1.332-1.759-1.332-1.759-1.09-.744.083-.73.083-.73 1.203.085 1.837 1.239 1.837 1.239 1.07 1.836 2.809 1.306 3.492.998.11-.776.42-1.305.763-1.605-2.664-.304-5.466-1.336-5.466-5.941 0-1.312.468-2.386 1.235-3.226-.124-.304-.535-1.526.117-3.18 0 0 1.008-.324 3.3 1.231a11.477 11.477 0 0 1 3.004-.404c1.02.005 2.046.138 3.005.404 2.29-1.555 3.296-1.232 3.296-1.232.655 1.655.243 2.877.12 3.181.768.84 1.234 1.914 1.234 3.226 0 4.617-2.807 5.634-5.48 5.931.431.371.814 1.104.814 2.226 0 1.606-.014 2.903-.014 3.297 0 .321.216.696.825.578a12.023 12.023 0 0 0 8.2-11.404C24.5 5.38 19.126 0 12.5 0Z"
                fill="#fff" />
        </g>
        <defs>
            <clipPath id="a">
                <path fill="#fff" d="M.5 0h24v24H.5z" />
            </clipPath>
        </defs>
    </symbol>
    <symbol id="arrow-up-right" viewBox="0 0 24 25" fill="none" xmlns="http://www.w3.org/2000/svg">
        <path d="m7 17.755 10-10m0 0H7m10 0v10" stroke="#6ADBFF" stroke-width="2"
            stroke-linecap="round" stroke-linejoin="round" />
    </symbol>
    <symbol id="arrow-right" viewBox="0 0 24 25" fill="none" xmlns="http://www.w3.org/2000/svg">
        <path d="M5 12.253h14m0 0-7-7m7 7-7 7" stroke="#6ADBFF" stroke-width="2"
            stroke-linecap="round" stroke-linejoin="round" />
    </symbol>
</svg>
